<svg id="Content" xmlns="http://www.w3.org/2000/svg" xmlns:xlink="http://www.w3.org/1999/xlink" width="96" height="96" viewBox="0 0 96 96">
  <defs>
    <linearGradient id="linear-gradient" x1="35.79" y1="10.115" x2="49.214" y2="10.115" gradientUnits="userSpaceOnUse">
      <stop offset="0.001" stop-color="#23893c"/>
      <stop offset="1" stop-color="#34a853"/>
    </linearGradient>
    <linearGradient id="linear-gradient-2" x1="50.448" y1="27.536" x2="63.288" y2="19.416" gradientUnits="userSpaceOnUse">
      <stop offset="0" stop-color="#e09108"/>
      <stop offset="0.021" stop-color="#e19308"/>
      <stop offset="0.37" stop-color="#efa906"/>
      <stop offset="0.703" stop-color="#f7b605"/>
      <stop offset="1" stop-color="#fabb05"/>
    </linearGradient>
    <linearGradient id="linear-gradient-3" x1="37.583" y1="34.548" x2="53.68" y2="24.367" gradientUnits="userSpaceOnUse">
      <stop offset="0" stop-color="#b7251d"/>
      <stop offset="0.126" stop-color="#c32b21"/>
      <stop offset="0.361" stop-color="#d33227"/>
      <stop offset="0.629" stop-color="#dc372a"/>
      <stop offset="0.998" stop-color="#df382b"/>
    </linearGradient>
    <linearGradient id="linear-gradient-4" x1="20.293" y1="77.011" x2="37.044" y2="77.011" gradientUnits="userSpaceOnUse">
      <stop offset="0.003" stop-color="#babfc5" stop-opacity="0"/>
      <stop offset="0.107" stop-color="#babfc5" stop-opacity="0.036"/>
      <stop offset="0.26" stop-color="#babfc5" stop-opacity="0.136"/>
      <stop offset="0.443" stop-color="#babfc5" stop-opacity="0.3"/>
      <stop offset="0.649" stop-color="#babfc5" stop-opacity="0.528"/>
      <stop offset="0.872" stop-color="#babfc5" stop-opacity="0.817"/>
      <stop offset="1" stop-color="#babfc5"/>
    </linearGradient>
    <linearGradient id="linear-gradient-5" x1="27.924" y1="53.274" x2="69.176" y2="53.274" gradientUnits="userSpaceOnUse">
      <stop offset="0" stop-color="#2c66bf"/>
      <stop offset="0.278" stop-color="#3471d2"/>
      <stop offset="0.727" stop-color="#3e80eb"/>
      <stop offset="1" stop-color="#4285f4"/>
    </linearGradient>
    <linearGradient id="linear-gradient-6" x1="34.584" y1="75.745" x2="52.257" y2="75.745" gradientUnits="userSpaceOnUse">
      <stop offset="0.001" stop-color="#174689" stop-opacity="0"/>
      <stop offset="0.151" stop-color="#174689" stop-opacity="0.21"/>
      <stop offset="0.423" stop-color="#174689" stop-opacity="0.549"/>
      <stop offset="0.665" stop-color="#174689" stop-opacity="0.795"/>
      <stop offset="0.864" stop-color="#174689" stop-opacity="0.946"/>
      <stop offset="0.997" stop-color="#174689"/>
    </linearGradient>
    <linearGradient id="linear-gradient-7" x1="50.563" y1="69.184" x2="66.753" y2="69.184" gradientUnits="userSpaceOnUse">
      <stop offset="0" stop-color="#174689" stop-opacity="0"/>
      <stop offset="0.088" stop-color="#174689" stop-opacity="0.168"/>
      <stop offset="0.215" stop-color="#174689" stop-opacity="0.361"/>
      <stop offset="0.355" stop-color="#174689" stop-opacity="0.512"/>
      <stop offset="0.512" stop-color="#174689" stop-opacity="0.619"/>
      <stop offset="0.7" stop-color="#174689" stop-opacity="0.681"/>
      <stop offset="1" stop-color="#174689" stop-opacity="0.7"/>
    </linearGradient>
    <clipPath id="clip-path">
      <path d="M48,7A41,41,0,1,0,89,48,40.989,40.989,0,0,0,48,7Z" fill="none"/>
    </clipPath>
    <linearGradient id="linear-gradient-8" x1="58.888" y1="90.056" x2="82.364" y2="66.58" xlink:href="#linear-gradient-5"/>
    <linearGradient id="linear-gradient-9" x1="67.324" y1="75.536" x2="77.091" y2="65.768" xlink:href="#linear-gradient-5"/>
  </defs>
  <title>site_sec_C_10</title>
  <g>
    <path d="M48,7A41,41,0,1,0,89,48,40.989,40.989,0,0,0,48,7Z" fill="#e8eaed"/>
    <circle cx="42.502" cy="10.115" r="6.712" fill="url(#linear-gradient)"/>
    <circle cx="55.873" cy="24.105" r="7.595" fill="url(#linear-gradient-2)"/>
    <circle cx="44.385" cy="30.246" r="9.522" fill="url(#linear-gradient-3)"/>
    <rect x="8.335" y="73.731" width="25.893" height="6.56" fill="url(#linear-gradient-4)"/>
    <path d="M63.317,80.294H33.552a2.078,2.078,0,0,1-2.073-1.926L27.814,28.485a2.078,2.078,0,0,1,2.073-2.231h37.1a2.078,2.078,0,0,1,2.073,2.231L65.39,78.368A2.078,2.078,0,0,1,63.317,80.294Z" fill="url(#linear-gradient-5)"/>
    <path d="M48.271,73.423a1.5,1.5,0,0,1-1.5-1.5V33.461a1.5,1.5,0,0,1,3,0V71.923A1.5,1.5,0,0,1,48.271,73.423Z" fill="#4285f4"/>
    <path d="M39.419,73.423A1.5,1.5,0,0,1,37.922,72l-2.08-38.462a1.5,1.5,0,0,1,3-.162l2.08,38.462A1.5,1.5,0,0,1,39.5,73.421Z" fill="#4285f4"/>
    <path d="M38.838,33.38a1.509,1.509,0,0,0-1.579-1.417,1.484,1.484,0,0,0-.667.2,1.5,1.5,0,0,1,.746,1.212l2.08,38.462a1.5,1.5,0,0,1-.75,1.374,1.486,1.486,0,0,0,.75.207l.082,0a1.5,1.5,0,0,0,1.417-1.579Z" fill="#2c66bf"/>
    <path d="M57.124,73.423l-.082,0a1.5,1.5,0,0,1-1.417-1.579l2.08-38.462a1.5,1.5,0,0,1,3,.162L58.621,72A1.5,1.5,0,0,1,57.124,73.423Z" fill="#4285f4"/>
    <path d="M59.284,31.963a1.485,1.485,0,0,0-.736.161,1.5,1.5,0,0,1,.822,1.418L57.291,72a1.5,1.5,0,0,1-.839,1.259,1.493,1.493,0,0,0,.59.158l.082,0A1.5,1.5,0,0,0,58.621,72L60.7,33.542A1.5,1.5,0,0,0,59.284,31.963Z" fill="#2c66bf" opacity="0.5"/>
    <path d="M48.271,31.961a1.492,1.492,0,0,0-.563.111,1.5,1.5,0,0,1,.937,1.389V71.923a1.5,1.5,0,0,1-.937,1.389,1.5,1.5,0,0,0,2.063-1.389V33.461A1.5,1.5,0,0,0,48.271,31.961Z" fill="#2c66bf"/>
    <polygon points="50.505 71.407 52.483 71.198 52.483 80.291 34.863 80.291 50.505 71.407" fill="url(#linear-gradient-6)"/>
    <polygon points="67.003 64.847 67.385 64.638 67.385 73.731 51.361 73.731 67.003 64.847" fill="url(#linear-gradient-7)"/>
    <path d="M52.483,78.213v-5a2.078,2.078,0,0,1,2.078-2.078H51.538a2.078,2.078,0,0,0-2.078,2.078v5a2.079,2.079,0,0,0,2.078,2.078h3.024A2.078,2.078,0,0,1,52.483,78.213Z" fill="#babfc5" opacity="0.5"/>
    <g clip-path="url(#clip-path)">
      <path d="M94.926,71.133H83.015a9.846,9.846,0,0,0-19.566,0H51.538a2.078,2.078,0,0,0-2.078,2.078v5a2.078,2.078,0,0,0,2.078,2.078H94.926A2.078,2.078,0,0,0,97,78.213v-5A2.078,2.078,0,0,0,94.926,71.133ZM73.232,66.556a5.755,5.755,0,0,1,5.624,4.577H67.608A5.755,5.755,0,0,1,73.232,66.556Z" fill="url(#linear-gradient-8)"/>
      <path d="M83.015,71.133a9.846,9.846,0,0,0-19.566,0h4.159a5.743,5.743,0,0,1,11.248,0Z" fill="url(#linear-gradient-9)"/>
    </g>
    <rect width="96" height="96" fill="none"/>
  </g>
</svg>
