<svg xmlns="http://www.w3.org/2000/svg" xmlns:xlink="http://www.w3.org/1999/xlink" width="96" height="96" viewBox="0 0 96 96">
  <defs>
    <clipPath id="clip-path">
      <circle cx="48" cy="48" r="41" fill="none"/>
    </clipPath>
    <linearGradient id="linear-gradient" x1="51" y1="78" x2="93" y2="78" gradientUnits="userSpaceOnUse">
      <stop offset="0" stop-color="#9aa0a6"/>
      <stop offset="1" stop-color="#9aa0a6" stop-opacity="0"/>
    </linearGradient>
  </defs>
  <title>site_sec_C_01</title>
  <g style="isolation: isolate">
    <g id="Content">
      <g>
        <g>
          <g>
            <circle cx="48" cy="48" r="41" fill="#e8eaed"/>
            <circle cx="48" cy="48" r="41" fill="none"/>
            <circle cx="48" cy="48" r="41" fill="none"/>
            <g clip-path="url(#clip-path)">
              <path d="M89.981,22.441,67.05,68.843c-1.63,3.328-5.58,3.008-7.182-.581L51.8,50.168c-1.613-3.616-5.6-3.907-7.208-.526l-6.8,14.3C36.141,67.408,32.029,67,30.5,63.224L25.637,50.7a4.25,4.25,0,0,0-7.675-.708l-9.3,15.345" fill="none" stroke="#fbbc04" stroke-linecap="round" stroke-miterlimit="10" stroke-width="6"/>
            </g>
            <circle cx="48" cy="47.981" r="11.526" fill="#fff" stroke="#34a853" stroke-miterlimit="10" stroke-width="6"/>
            <circle cx="87.5" cy="27.5" r="8.5" fill="#fbbc04"/>
          </g>
          <rect width="96" height="96" fill="none"/>
        </g>
        <g>
          <rect x="51" y="68" width="42" height="20" rx="10" ry="10" fill="#80868b"/>
          <rect x="51" y="68" width="42" height="20" rx="10" ry="10" fill="url(#linear-gradient)" style="mix-blend-mode: multiply"/>
          <circle cx="51" cy="78" r="15" fill="#9aa0a6"/>
          <path d="M54,90A14.98,14.98,0,0,1,42.012,66.012,14.986,14.986,0,1,0,62.988,86.988,14.913,14.913,0,0,1,54,90Z" fill="#bdc1c6" opacity="0.4" style="mix-blend-mode: multiply"/>
        </g>
        <rect width="96" height="96" fill="none"/>
      </g>
    </g>
  </g>
</svg>
