<svg xmlns="http://www.w3.org/2000/svg" xmlns:xlink="http://www.w3.org/1999/xlink" width="96" height="96" viewBox="0 0 96 96">
  <defs>
    <linearGradient id="linear-gradient" x1="48" y1="71" x2="48" y2="33" gradientUnits="userSpaceOnUse">
      <stop offset="0" stop-color="#5f6368"/>
      <stop offset="0.232" stop-color="#5f6368" stop-opacity="0.699"/>
      <stop offset="0.568" stop-color="#5f6368" stop-opacity="0.32"/>
      <stop offset="0.836" stop-color="#5f6368" stop-opacity="0.086"/>
      <stop offset="1" stop-color="#5f6368" stop-opacity="0"/>
    </linearGradient>
  </defs>
  <title>site_sec_C_08</title>
  <g style="isolation: isolate">
    <g id="Content">
      <g>
        <path d="M48,7A41,41,0,1,0,89,48,40.989,40.989,0,0,0,48,7Z" fill="#e8eaed"/>
        <g>
          <path d="M16,33H80a0,0,0,0,1,0,0V68a3,3,0,0,1-3,3H19a3,3,0,0,1-3-3V33A0,0,0,0,1,16,33Z" fill="#fff"/>
          <path d="M77,71H19a3,3,0,0,1-3-3V33H80V68A3,3,0,0,1,77,71Z" opacity="0.3" fill="url(#linear-gradient)" style="mix-blend-mode: multiply"/>
          <path d="M19,25H77a3,3,0,0,1,3,3v5a0,0,0,0,1,0,0H16a0,0,0,0,1,0,0V28A3,3,0,0,1,19,25Z" fill="#4285f4"/>
          <g>
            <circle cx="33" cy="50" r="11" fill="#4285f4"/>
            <g>
              <rect x="50" y="39.5" width="24" height="3" rx="1.5" ry="1.5" fill="#9aa0a6"/>
              <rect x="50" y="48.5" width="24" height="3" rx="1.5" ry="1.5" fill="#9aa0a6"/>
              <rect x="50" y="57.5" width="16" height="3" rx="1.5" ry="1.5" fill="#9aa0a6"/>
            </g>
            <g id="PRIVACY_512dp" data-name="PRIVACY 512dp">
              <path d="M26.8,54.881c0-1.666,2.882-3.021,6.2-3.081,3.318.061,6.2,1.416,6.2,3.081v.174a8,8,0,1,0-12.4,0Z" fill="#185abc"/>
              <path d="M39.2,54.881c0-1.666-2.882-3.021-6.2-3.081-3.318.061-6.2,1.416-6.2,3.081v.174a8,8,0,0,0,12.4,0Z" fill="#fff"/>
              <circle cx="33" cy="47.133" r="3.2" fill="#fff"/>
            </g>
          </g>
        </g>
        <rect width="96" height="96" fill="none"/>
        <path d="M77,68H19a3,3,0,0,1-3-3v3a3,3,0,0,0,3,3H77a3,3,0,0,0,3-3V65A3,3,0,0,1,77,68Z" fill="#bdc1c6"/>
      </g>
    </g>
  </g>
</svg>
