<svg xmlns="http://www.w3.org/2000/svg" width="96" height="96" viewBox="0 0 96 96"><defs><clipPath id="a"><circle cx="48" cy="48" r="40" fill="none"/></clipPath></defs><circle cx="48" cy="48" r="40" fill="#e8eaed"/><path fill="none" d="M0 0h96v96H0z"/><g clip-path="url(#a)"><rect y="20" width="64" height="56" rx="4" fill="#f8f9fa"/><rect x="58" y="48" width="36" height="64" rx="4" fill="#9aa0a6"/><path fill="#5f6368" d="M58 54h36v52H58z"/><g fill="#fbbc04"><circle cx="66" cy="63" r="3"/><circle cx="86" cy="63" r="3"/><circle cx="76" cy="63" r="3"/></g><g fill="#fbbc04"><circle cx="66" cy="75" r="3"/><circle cx="86" cy="75" r="3"/><circle cx="76" cy="75" r="3"/></g></g><g><path d="M4 20h22v56H4a4 4 0 0 1-4-4V24a4 4 0 0 1 4-4z" fill="#f8f9fa"/><path d="M4 20h56a4 4 0 0 1 4 4v4H0v-4a4 4 0 0 1 4-4z" fill="#9aa0a6"/><circle cx="6" cy="24" r="2" fill="#d93025"/></g><g><rect x="36" y="36" width="4" height="32" rx="2" fill="#ceead6"/><rect x="24" y="36" width="4" height="32" rx="2" fill="#ceead6"/><rect x="12" y="36" width="4" height="32" rx="2" fill="#ceead6"/><rect x="24" y="52" width="4" height="16" rx="2" fill="#34a853"/><rect x="36" y="44" width="4" height="24" rx="2" fill="#34a853"/><rect x="48" y="36" width="4" height="32" rx="2" fill="#34a853"/><rect x="12" y="60" width="4" height="8" rx="2" fill="#34a853"/></g></svg>