<svg xmlns="http://www.w3.org/2000/svg" width="53" height="62" viewBox="0 0 70 82" fill="none">
  <path d="M 26.8292,75.5938 C 44.7667,67.0521 51.173,51.5917 52.7959,40.4021 53.1376,37.925 53.3084,35.3625 53.3938,32.8 V 14.0084 L 26.9147,5.8938 0.4355,14.0084 V 32.8 c 0.0854,2.5625 0.2562,5.0396 0.5979,7.6021 1.5375,11.1896 7.9438,26.65 25.7958,35.1917 z" fill="#4285f4"/>
  <path d="m 12.9917,49.3708 c 0,-3.7583 6.6625,-6.8333 14.0083,-7.0042 7.4313,0.1709 14.0084,3.2459 14.0084,7.0042 v 0.3417 c 5.8083,-7.4313 5.0396,-18.023 -1.8792,-24.5146 -6.8333,-6.4063 -17.5104,-6.4063 -24.3437,0 -6.8334,6.4916 -7.6875,17.0833 -1.7938,24.5146 z" fill="#3362b5"/>
  <path d="m 41.0084,49.3709 c 0,-3.7584 -6.6625,-6.8334 -14.0084,-7.0042 -7.3458,0.1708 -14.0083,3.2458 -14.0083,7.0042 v 0.3416 c 6.0646,7.7729 17.2542,9.1396 25.0271,2.9896 1.1104,-0.8542 2.1354,-1.8792 2.9896,-2.9896 z" fill="#ffffff"/>
  <path d="m 27,39.2917 c 3.8683,0 7.0042,-3.1741 7.0042,-7.0896 0,-3.9154 -3.1359,-7.0896 -7.0042,-7.0896 -3.8683,0 -7.0042,3.1742 -7.0042,7.0896 0,3.9155 3.1359,7.0896 7.0042,7.0896 z" fill="#ffffff"/>
  <path d="M 52.1979,71.75 C 60.9251,71.75 68,64.6752 68,55.948 68,47.2207 60.9251,40.1459 52.1979,40.1459 c -8.7273,0 -15.8021,7.0748 -15.8021,15.8021 0,8.7272 7.0748,15.802 15.8021,15.802 z" fill="#babfc5"/>
  <path d="m 45.5355,52.6166 c 0.8491,0 1.5375,-0.6883 1.5375,-1.5375 0,-0.8491 -0.6884,-1.5375 -1.5375,-1.5375 -0.8492,0 -1.5375,0.6884 -1.5375,1.5375 0,0.8492 0.6883,1.5375 1.5375,1.5375 z" fill="#ffffff"/>
  <path d="m 45.5355,57.8271 c 0.8491,0 1.5375,-0.6884 1.5375,-1.5375 0,-0.8492 -0.6884,-1.5375 -1.5375,-1.5375 -0.8492,0 -1.5375,0.6883 -1.5375,1.5375 0,0.8491 0.6883,1.5375 1.5375,1.5375 z" fill="#ffffff"/>
  <path d="m 45.5355,63.0375 c 0.8491,0 1.5375,-0.6883 1.5375,-1.5375 0,-0.8491 -0.6884,-1.5375 -1.5375,-1.5375 -0.8492,0 -1.5375,0.6884 -1.5375,1.5375 0,0.8492 0.6883,1.5375 1.5375,1.5375 z" fill="#ffffff"/>
  <path d="M 60.7396,50.3104 H 49.3792 v 2.2209 h 11.3604 z" fill="#ffffff"/>
  <path d="M 60.7396,55.5209 H 49.3792 v 2.2208 h 11.3604 z" fill="#ffffff"/>
  <path d="M 60.7396,60.7312 H 49.3792 v 2.2208 h 11.3604 z" fill="#ffffff"/>
</svg>
