<svg id="Content" xmlns="http://www.w3.org/2000/svg" xmlns:xlink="http://www.w3.org/1999/xlink" width="96" height="96" viewBox="0 0 96 96">
  <defs>
    <clipPath id="clip-path">
      <path d="M48,7A41,41,0,1,0,89,48,40.989,40.989,0,0,0,48,7Z" fill="none"/>
    </clipPath>
    <linearGradient id="linear-gradient" x1="54.72" y1="89.276" x2="92.089" y2="51.907" gradientUnits="userSpaceOnUse">
      <stop offset="0" stop-color="#dfe1e5"/>
      <stop offset="0.077" stop-color="#e9eaed"/>
      <stop offset="0.227" stop-color="#f6f6f7"/>
      <stop offset="0.426" stop-color="#fdfdfd"/>
      <stop offset="0.875" stop-color="#fff"/>
    </linearGradient>
    <clipPath id="clip-path-2">
      <rect x="53.811" y="50.998" width="39.187" height="39.187" rx="3.104" ry="3.104" fill="none"/>
    </clipPath>
    <linearGradient id="linear-gradient-2" x1="29.406" y1="65.093" x2="66.594" y2="27.905" xlink:href="#linear-gradient"/>
    <clipPath id="clip-path-3">
      <rect x="28.501" y="27" width="38.998" height="38.998" rx="3.089" ry="3.089" fill="none"/>
    </clipPath>
    <linearGradient id="linear-gradient-3" x1="3.911" y1="41.28" x2="41.28" y2="3.911" xlink:href="#linear-gradient"/>
  </defs>
  <title>site_sec_C_07</title>
  <g>
    <path d="M48,7A41,41,0,1,0,89,48,40.989,40.989,0,0,0,48,7Z" fill="#e8eaed"/>
    <g clip-path="url(#clip-path)">
      <g>
        <rect x="-4.83" y="-2.384" width="31.226" height="31.226" rx="3" ry="3" fill="#dadce0"/>
        <rect x="-4.83" y="67.157" width="31.226" height="31.226" rx="3" ry="3" fill="#dadce0"/>
        <rect x="29.972" y="67.157" width="31.226" height="31.226" rx="3" ry="3" fill="#dadce0"/>
        <g>
          <rect x="29.972" y="-2.384" width="31.226" height="31.226" rx="3" ry="3" fill="#dadce0"/>
          <rect x="64.774" y="-2.384" width="31.226" height="31.226" rx="3" ry="3" fill="#dadce0"/>
          <rect x="-4.83" y="32.36" width="31.226" height="31.226" rx="3" ry="3" fill="#dadce0"/>
          <rect x="29.972" y="32.36" width="31.226" height="31.226" rx="3" ry="3" fill="#dadce0"/>
          <rect x="64.774" y="32.36" width="31.226" height="31.226" rx="3" ry="3" fill="#dadce0"/>
          <rect x="64.774" y="67.157" width="31.226" height="31.226" rx="3" ry="3" fill="#dadce0"/>
        </g>
      </g>
    </g>
    <rect x="53.811" y="53.811" width="39.187" height="39.187" rx="3.104" ry="3.104" fill="#cdd0d5"/>
    <rect x="53.811" y="50.998" width="39.187" height="39.187" rx="3.104" ry="3.104" fill="url(#linear-gradient)"/>
    <g clip-path="url(#clip-path-2)">
      <rect x="33.886" y="32.163" width="38.998" height="38.998" rx="3.089" ry="3.089" fill="#babfc5"/>
    </g>
    <g>
      <circle cx="73.405" cy="70.82" r="8.284" fill="#23893c"/>
      <path d="M73.4,79.708a7.577,7.577,0,0,1-6.314-3.388c.026-2.089,4.214-3.241,6.314-3.241s6.282,1.152,6.314,3.241A7.577,7.577,0,0,1,73.4,79.708Z" fill="#fff"/>
      <path d="M73.4,59.036c-.176,0-.347.019-.521.026v3.5c.173-.011.345-.026.521-.026a8.284,8.284,0,1,1-8.267,8.625h-3.5A11.778,11.778,0,1,0,73.4,59.036Z" fill="#34a853"/>
      <path d="M76.562,67.922a3.107,3.107,0,0,0-3.678-3.1v3.308a3.02,3.02,0,0,1-1.226,2.424,3.155,3.155,0,0,0,4.9-2.628Z" fill="#fff"/>
      <path d="M65.121,70.82a8.275,8.275,0,0,1,7.763-8.258v-3.5A11.774,11.774,0,0,0,61.621,70.82c0,.115.014.226.017.34h3.5C65.133,71.047,65.121,70.935,65.121,70.82Z" fill="#23893c"/>
      <path d="M65.121,70.82c0,.115.013.227.017.34H69.85a3.007,3.007,0,0,0,1.808-.61,3.149,3.149,0,0,1,1.226-5.732V62.562A8.275,8.275,0,0,0,65.121,70.82Z" fill="#126b26"/>
      <path d="M72.884,68.126V64.818a3.149,3.149,0,0,0-1.226,5.732A3.02,3.02,0,0,0,72.884,68.126Z" fill="#cdd0d5"/>
    </g>
    <rect x="28.501" y="30.002" width="38.998" height="38.998" rx="3.089" ry="3.089" fill="#cdd0d5"/>
    <rect x="28.501" y="27" width="38.998" height="38.998" rx="3.089" ry="3.089" fill="url(#linear-gradient-2)"/>
    <g clip-path="url(#clip-path-3)">
      <rect x="9.002" y="9.367" width="38.998" height="38.998" rx="3.089" ry="3.089" fill="#babfc5"/>
    </g>
    <g>
      <path d="M44.85,46.486a4.6,4.6,0,0,0,1.895-1.531,3.628,3.628,0,0,0,.733-2.164,4.51,4.51,0,0,0-1.46-3.573,5.288,5.288,0,0,0-2.873-1.209A8.344,8.344,0,0,0,42,37.933a6.353,6.353,0,0,0-2.8.6,4.7,4.7,0,0,0-1.948,1.684,4.317,4.317,0,0,0-.7,2.394h2.851a2.216,2.216,0,0,1,.739-1.731,2.727,2.727,0,0,1,1.889-.663,4.228,4.228,0,0,1,.586.04,2.956,2.956,0,0,1,.426.1c.023.007.049.01.072.017a2.077,2.077,0,0,1,.78.448h0c.028.026.064.045.09.073a2.644,2.644,0,0,1,.639,1.9,2.429,2.429,0,0,1-.768,1.936,3.109,3.109,0,0,1-2.083.681H40.038V47.66h1.679a3.411,3.411,0,0,1,2.37.728,3.109,3.109,0,0,1,.036,4.118,2.962,2.962,0,0,1-2.089.7,2.869,2.869,0,0,1-2.035-.7,2.383,2.383,0,0,1-.757-1.83H36.39a4.328,4.328,0,0,0,1.573,3.5A6.079,6.079,0,0,0,42,55.486a6.123,6.123,0,0,0,4.148-1.362,4.586,4.586,0,0,0,1.578-3.66A4.145,4.145,0,0,0,46.99,48,4.194,4.194,0,0,0,44.85,46.486Z" fill="#4285f4"/>
      <polygon points="57.756 38.11 51.091 40.561 51.091 42.955 55.28 41.527 55.28 55.251 58.12 55.251 58.12 38.11 57.756 38.11" fill="#4285f4"/>
    </g>
    <path d="M44.056,48.365c.009.008.022.014.031.022a3.109,3.109,0,0,1,.036,4.118,2.962,2.962,0,0,1-2.089.7,2.869,2.869,0,0,1-2.035-.7,2.383,2.383,0,0,1-.757-1.83H36.39a4.328,4.328,0,0,0,1.573,3.5A6.079,6.079,0,0,0,42,55.486a6.123,6.123,0,0,0,4.148-1.362,4.586,4.586,0,0,0,1.578-3.66A4.145,4.145,0,0,0,46.99,48c-.068-.1-.15-.178-.226-.267a3.061,3.061,0,0,1-1.853.632Z" fill="#4285f4"/>
    <path d="M44.85,46.486a4.6,4.6,0,0,0,1.895-1.531,3.628,3.628,0,0,0,.733-2.164,4.51,4.51,0,0,0-1.46-3.573,5.288,5.288,0,0,0-2.873-1.209A8.344,8.344,0,0,0,42,37.933a6.353,6.353,0,0,0-2.8.6,4.7,4.7,0,0,0-1.948,1.684,4.317,4.317,0,0,0-.7,2.394h2.851a2.216,2.216,0,0,1,.739-1.731,2.727,2.727,0,0,1,1.889-.663,4.228,4.228,0,0,1,.586.04,2.956,2.956,0,0,1,.426.1c.023.007.049.01.072.017a2.077,2.077,0,0,1,.78.448h0c.028.026.064.045.09.073a2.644,2.644,0,0,1,.639,1.9,2.429,2.429,0,0,1-.768,1.936,3.109,3.109,0,0,1-2.083.681H40.038V47.66h1.679a3.435,3.435,0,0,1,2.339.706h.856a3.061,3.061,0,0,0,1.853-.632A4.307,4.307,0,0,0,44.85,46.486Z" fill="#2c66bf" opacity="0.5"/>
    <g>
      <rect x="3.002" y="5.815" width="39.187" height="39.187" rx="3.104" ry="3.104" fill="#cdd0d5"/>
      <rect x="3.002" y="3.002" width="39.187" height="39.187" rx="3.104" ry="3.104" fill="url(#linear-gradient-3)"/>
      <g>
        <ellipse cx="22.595" cy="18.296" rx="9.513" ry="9.58" fill="#e94335"/>
        <path d="M22.6,13.54h0a4.757,4.757,0,0,0,0,9.513h0a4.757,4.757,0,0,0,0-9.513Z" fill="#fff"/>
        <polygon points="22.6 36.474 14.428 23.215 30.823 23.071 22.6 36.474" fill="#e94335"/>
      </g>
    </g>
    <rect width="96" height="96" fill="none"/>
    <rect width="96" height="96" fill="none"/>
  </g>
</svg>
